<svg height="50" width="50" enable-background="new 0 0 455.885 455.885" viewBox="0 0 455.885 455.885" xmlns="http://www.w3.org/2000/svg"><g fill="#94d31b"><path d="m445.319 268.282c-23.536 0-60.354 14.135-77.955 34.354-23.834-20.916-75.513-38.657-123.127-50.092-17.319-26.133-18.825-46.286-17.214-58.239.43-3.19-.713-6.389-3.058-8.584-2.353-2.197-5.617-3.125-8.764-2.486-31.052 6.263-48.126 33.657-57.045 55.591-.386-.008-.839-.029-1.21-.029-48.111 0-117.503 38.999-117.503 87.11s69.392 87.11 117.503 87.11c1.603 0 3.369-.051 5.254-.133 17.363 9.357 37.679 15.107 52.645 15.107 18.38 0 9.387-8.636-1.477-22.044 54.018-10.344 124.856-31.203 153.995-56.779 17.608 20.228 54.419 34.355 77.955 34.355 31.816 0-18.365-25.8-18.365-57.624.002-31.818 50.183-57.617 18.366-57.617zm-352.049 58.617c-7.346 0-13.296-5.951-13.296-13.296s5.951-13.297 13.296-13.297c7.346 0 13.297 5.951 13.297 13.297s-5.951 13.296-13.297 13.296z"/><path d="m16.458 248.389c-9.089 0-16.458 7.368-16.458 16.457 0 9.096 7.369 16.465 16.458 16.465 9.097 0 16.465-7.369 16.465-16.465 0-9.089-7.369-16.457-16.465-16.457z"/><path d="m52.015 196.471c-6.946 0-12.57 5.624-12.57 12.569 0 6.946 5.624 12.57 12.57 12.57 6.944 0 12.569-5.624 12.569-12.57 0-6.945-5.625-12.569-12.569-12.569z"/><path d="m28.493 149.613c12.244 0 22.163-9.92 22.163-22.156 0-12.243-9.92-22.164-22.163-22.164-12.236 0-22.156 9.921-22.156 22.164 0 12.236 9.92 22.156 22.156 22.156z"/><path d="m63.397 53.369c7.034 0 12.733-5.699 12.733-12.74 0-7.034-5.699-12.732-12.733-12.732-7.042 0-12.74 5.698-12.74 12.732 0 7.041 5.698 12.74 12.74 12.74z"/></g></svg>

